# xmcd CD database file
#
# Track frame offsets:
#	150
#	17736
#	35392
#	51850
#	71394
#	89656
#	101899
#	122641
#	138005
#	154790
#	168266
#	184618
#
# Disc length: 2703 seconds
#
# Revision: 0
# Processed by: cddbd v1.5.2PL0 Copyright (c) Steve Scherf et al.
# Submitted via: CDex 1.51
#
DISCID=980a8d0c
DTITLE=Jimmy Kaiser - I'm Gone
DYEAR=2005
DGENRE=Country
TTITLE0=One Horse Town
TTITLE1=Cry
TTITLE2=I'm Gone
TTITLE3=Show Me How To Feel
TTITLE4=Highway
TTITLE5=Vamoose Vamonos
TTITLE6=Black Dog
TTITLE7=Highway 87
TTITLE8=Lady Bug
TTITLE9=Another Night Alone
TTITLE10=Back to Life
TTITLE11=The Best Days Are Gone
EXTD=YEAR: 2005
EXTT0=
EXTT1=
EXTT2=
EXTT3=
EXTT4=
EXTT5=
EXTT6=
EXTT7=
EXTT8=
EXTT9=
EXTT10=
EXTT11=
PLAYORDER=
